# xmcd
#
# Track frame offsets:
#	150
#	17870
#	37412
#	55285
#	78110
#	90885
#	110032
#	128307
#	143962
#	158480
#	178657
#	197647
#	213352
#	228722
#
# Disc length: 3295 seconds
#
# Revision: 6
# Processed by: cddbd v1.5.2PL0 Copyright (c) Steve Scherf et al.
# Submitted via: audiograbber 1.83.01
#
DISCID=b70cdd0e
DTITLE=Vários Artistas - O Melhor da Bahia - Ao Vivo
DYEAR=1900
DGENRE=Axé
TTITLE0=Bamdamel - Festa Na Bahia
TTITLE1=Ara Ketu - Mal Acostumada
TTITLE2=Terra Samba - Liberar Geral
TTITLE3=Bamdamel - Faraó Divindade do Egito
TTITLE4=Asa de Águia - Xô Satanás
TTITLE5=Banda Eva - Arerê
TTITLE6=Chiclete Com Banana - Meu Cabelo Duro É Assim
TTITLE7=Daniela Mercury - O Canto da Cidade
TTITLE8=Banda Cheiro de Amor - É Demais Meu Rei
TTITLE9=Ara Ketu - Ara Ketu Bom Demais
TTITLE10=Asa de Águia - Manivela
TTITLE11=Banda Eva - Vem Meu Amor
TTITLE12=Ricardo Chaves - Acabou
TTITLE13=Renato Dias - Dança do Patinho
EXTD=Dados Por - Dayvison de Azevedo - Recife - PE\nFacebook - https://www.face
EXTD=book.com/profile.php?id=100006142608616
EXTT0=
EXTT1=
EXTT2=
EXTT3=
EXTT4=
EXTT5=
EXTT6=
EXTT7=
EXTT8=
EXTT9=
EXTT10=
EXTT11=
EXTT12=
EXTT13=
PLAYORDER=
